<?xml version="1.0" standalone="no"?>
<!DOCTYPE svg PUBLIC "-//W3C//DTD SVG 20010904//EN"
 "http://www.w3.org/TR/2001/REC-SVG-20010904/DTD/svg10.dtd">
<svg version="1.0" xmlns="http://www.w3.org/2000/svg"
 width="598.000000pt" height="598.000000pt" viewBox="0 0 598.000000 598.000000"
 preserveAspectRatio="xMidYMid meet">
<metadata>
Created by potrace 1.11, written by Peter Selinger 2001-2013
</metadata>
<g transform="translate(0.000000,598.000000) scale(0.100000,-0.100000)"
fill="#000000" stroke="none">
<path d="M530 5957 c199 -100 537 -352 725 -542 113 -114 173 -205 233 -361
21 -55 53 -137 71 -184 19 -47 44 -104 57 -128 17 -30 20 -44 11 -46 -140 -39
-245 -84 -363 -156 -352 -216 -693 -676 -793 -1072 -16 -64 -26 -116 -47 -248
-10 -63 -12 -393 -3 -470 5 -41 11 -97 14 -125 4 -42 28 -179 50 -290 6 -32
20 -82 62 -230 29 -104 112 -331 155 -425 100 -219 382 -764 456 -879 217
-340 533 -566 1002 -719 116 -38 225 -60 350 -71 98 -9 571 -7 586 2 5 3 43 8
84 11 41 3 113 13 160 21 47 9 101 18 120 21 51 8 285 76 435 127 450 153 767
358 982 637 187 241 371 689 513 1245 32 127 61 244 64 260 3 17 8 44 11 60 3
17 8 37 10 45 2 8 7 31 10 50 3 19 8 46 10 60 11 54 13 69 20 121 3 30 8 65
10 79 3 14 8 48 11 75 3 28 7 61 9 75 20 145 27 556 12 705 -28 284 -99 511
-203 646 -112 145 -344 286 -626 379 -122 41 -328 88 -448 104 -25 3 -56 8
-70 11 -14 3 -99 7 -190 10 -133 3 -185 0 -270 -15 -58 -11 -121 -22 -140 -26
-19 -3 -105 -21 -190 -39 -144 -31 -414 -85 -425 -85 -10 0 -4 42 25 170 51
225 111 382 183 475 64 83 109 116 282 205 204 106 333 197 364 257 28 55 -52
137 -159 163 -56 13 -69 10 -164 -36 -286 -143 -503 -492 -601 -969 -9 -44
-18 -81 -19 -83 -2 -1 -7 19 -11 45 -24 170 -111 408 -192 530 -157 237 -548
405 -1228 528 -44 7 -98 16 -120 19 -22 2 -87 11 -145 19 -58 9 -136 18 -175
22 -38 3 -83 8 -100 10 -42 5 -155 14 -255 20 -47 3 -110 7 -140 10 l-55 4 45
-22z m470 -112 c19 -2 73 -7 120 -11 47 -3 87 -7 90 -9 3 -2 34 -6 70 -10 36
-3 72 -8 80 -10 8 -2 31 -6 50 -9 50 -7 110 -17 129 -21 14 -3 149 -31 191
-40 170 -36 404 -116 543 -186 213 -107 321 -218 421 -431 68 -145 150 -426
176 -601 6 -43 13 -88 15 -100 5 -26 9 -199 5 -242 -2 -30 -2 -30 -9 -5 -31
102 -183 330 -364 548 -38 45 -75 95 -83 110 -22 42 -17 123 12 199 14 37 34
94 44 126 l19 59 -22 -15 c-30 -19 -88 -97 -132 -176 -60 -110 -52 -105 -126
-75 -35 14 -70 28 -79 29 -8 2 -46 10 -85 19 -81 17 -258 29 -250 17 2 -5 64
-32 137 -61 132 -52 225 -95 304 -141 81 -47 248 -262 383 -492 116 -198 143
-248 137 -254 -10 -10 -123 32 -231 87 -182 92 -466 284 -583 394 -52 49 -129
153 -165 221 -14 28 -59 122 -100 211 -89 196 -146 282 -251 387 -149 148
-408 352 -566 447 l-85 51 85 -6 c47 -3 101 -8 120 -10z m3140 -1229 c14 -2
41 -7 60 -11 19 -3 49 -8 66 -10 17 -3 60 -12 95 -20 35 -9 75 -18 89 -21 69
-13 288 -93 385 -140 292 -141 430 -284 506 -529 39 -128 37 -118 54 -216 25
-141 30 -205 30 -429 0 -242 -11 -398 -41 -575 -3 -16 -7 -43 -9 -60 -4 -36
-43 -243 -50 -265 -2 -8 -7 -31 -10 -50 -9 -54 -63 -266 -91 -360 -14 -46 -27
-91 -29 -100 -8 -35 -100 -293 -140 -390 -42 -104 -111 -247 -155 -325 -143
-251 -397 -479 -690 -618 -288 -136 -714 -267 -955 -293 -33 -3 -69 -8 -80
-10 -53 -10 -260 -19 -440 -18 -238 1 -373 19 -536 70 -495 157 -793 379
-1018 759 -51 87 -225 422 -357 687 -132 265 -248 636 -279 888 -4 30 -8 57
-10 60 -2 3 -7 59 -11 125 -36 564 93 941 461 1353 43 48 180 162 250 207 118
77 274 143 402 170 87 19 86 19 114 -6 152 -135 554 -380 754 -460 44 -17 82
-33 84 -35 9 -8 -166 -52 -309 -78 -166 -30 -227 -51 -197 -67 15 -9 97 -29
140 -35 15 -2 39 -6 55 -10 15 -3 101 -8 192 -10 143 -4 176 -2 245 16 94 24
282 114 410 196 85 55 267 185 291 208 6 6 28 26 48 44 39 35 47 57 19 48 -84
-25 -405 -115 -430 -121 -18 -3 -39 -2 -48 3 -14 7 -11 15 21 58 51 68 184
203 214 219 54 28 461 139 555 151 28 3 52 8 54 10 5 5 253 -4 291 -10z"/>
<path d="M2225 3103 c-68 -36 -66 -27 -60 -232 3 -102 7 -197 9 -211 2 -14 7
-47 11 -75 18 -140 78 -378 131 -520 26 -69 59 -201 69 -273 3 -20 7 -46 10
-57 2 -11 7 -42 10 -70 7 -57 30 -219 41 -282 3 -23 14 -49 23 -57 37 -32 124
-40 196 -16 32 10 32 11 29 68 -1 31 -5 68 -7 82 -10 50 -39 186 -44 205 -8
30 -13 169 -7 192 8 30 63 44 104 27 40 -17 145 -93 279 -202 120 -97 194
-166 337 -311 l102 -103 38 12 c57 19 106 53 148 102 l38 43 -65 60 c-91 85
-424 313 -593 405 -170 93 -224 146 -232 230 -11 117 72 284 208 420 189 189
343 264 524 255 124 -6 148 -14 177 -61 17 -29 20 -45 16 -83 l-6 -48 52 4
c110 7 191 53 231 131 20 38 31 111 22 146 -13 53 -90 119 -167 145 -62 20
-81 23 -183 27 -80 3 -112 0 -170 -17 -215 -64 -408 -178 -554 -327 -41 -42
-152 -186 -220 -284 -27 -40 -36 -46 -59 -42 -64 12 -92 54 -113 174 -17 94
-15 125 21 257 17 65 33 140 35 166 2 49 2 49 -39 67 -44 19 -80 25 -217 36
-91 7 -104 10 -95 25 8 12 6 11 -30 -8z"/>
</g>
</svg>
